<?xml version="1.0" encoding="utf-8"?>
<!-- Generator: Adobe Illustrator 25.2.0, SVG Export Plug-In . SVG Version: 6.00 Build 0)  -->
<svg version="1.1" id="Layer_1" xmlns="http://www.w3.org/2000/svg" xmlns:xlink="http://www.w3.org/1999/xlink" x="0px" y="0px"
	 viewBox="0 0 170 37" style="enable-background:new 0 0 170 37;" xml:space="preserve">
<style type="text/css">
	.st0{fill:#FFFFFF;}
	.st1{fill:#D48C00;}
</style>
<g>
	<g>
		<g>
			<path class="st0" d="M102.3,13.94c-0.01,0.38,0.13,0.63,0.39,0.89c4.3,4.31,8.6,8.63,12.89,12.95c0.24,0.24,0.47,0.36,0.81,0.36
				c1.41-0.01,2.82-0.01,4.31-0.01c-6.2-6.13-12.33-12.2-18.39-18.19C102.31,11.17,102.32,12.55,102.3,13.94z"/>
			<path class="st0" d="M102.31,27.7c0,0.25,0.02,0.43,0.36,0.43c2.08-0.01,4.16-0.01,6.21-0.01c-2.22-2.22-4.39-4.39-6.56-6.57
				C102.31,23.59,102.31,25.65,102.31,27.7z"/>
		</g>
		<g>
			<path class="st1" d="M118.08,13.17c-1.02,0-1.99,0-2.97,0c-0.33,0-0.66-0.01-1,0c-0.27,0.01-0.11-0.18-0.12-0.86
				c-0.04-0.35-0.07-0.43,0.1-0.43c1.92,0,3.84,0,5.76,0c-0.61,2.72-2.91,4.8-5.65,5.12c-0.23,0.03-0.23,0.03-0.23-0.2
				c0-0.33,0-0.65,0-0.98c0-0.08,0.01-0.13,0.11-0.14c1.56-0.18,2.72-1.03,3.72-2.17L118.08,13.17z"/>
			<path class="st1" d="M116.99,9.97c0.94,0,1.88,0,2.83,0c0.14,0,0.19,0.03,0.19,0.17c0.01,0.33-0.03,0.66-0.04,0.99
				c0,0.12-0.08,0.12-0.17,0.12c-1.1,0-2.21,0-3.31,0c-0.78,0-1.56-0.01-2.34,0c-0.31,0-0.15-0.18-0.16-0.86
				c-0.05-0.36-0.06-0.43,0.12-0.43C115.07,9.98,116.03,9.97,116.99,9.97z"/>
		</g>
	</g>
</g>
<path class="st0" d="M3.18,28.04V10.11c0-0.08,0.07-0.15,0.15-0.15h7.35c1.61,0,3,0.26,4.15,0.77c1.15,0.51,2.04,1.25,2.67,2.23
	c0.63,0.97,0.94,2.14,0.94,3.49c0,1.34-0.31,2.49-0.94,3.45c-0.63,0.96-1.52,1.71-2.67,2.24c-1.15,0.53-2.54,0.79-4.15,0.79H5.43
	c-0.13,0-0.2-0.16-0.11-0.26l0.98-1.03c0.09-0.1,0.26-0.03,0.26,0.1v6.29c0,0.08-0.07,0.15-0.15,0.15H3.33
	C3.25,28.19,3.18,28.12,3.18,28.04z M6.3,21.43l-1-1.12c-0.09-0.1-0.02-0.25,0.11-0.25h5.11c1.49,0,2.62-0.32,3.37-0.95
	c0.76-0.63,1.13-1.52,1.13-2.67s-0.38-2.04-1.13-2.67c-0.76-0.63-1.88-0.95-3.37-0.95H5.42c-0.13,0-0.2-0.15-0.11-0.25l1-1.12
	c0.09-0.1,0.26-0.04,0.26,0.1v9.78C6.57,21.47,6.4,21.54,6.3,21.43z"/>
<path class="st0" d="M29.79,25.32h9.99c0.08,0,0.15,0.07,0.15,0.15v2.56c0,0.08-0.07,0.15-0.15,0.15H26.41
	c-0.08,0-0.15-0.07-0.15-0.15V10.11c0-0.08,0.07-0.15,0.15-0.15h13.01c0.08,0,0.15,0.07,0.15,0.15v2.56c0,0.08-0.07,0.15-0.15,0.15
	h-9.62c-0.08,0-0.15,0.07-0.15,0.15v12.2C29.64,25.25,29.71,25.32,29.79,25.32z M29.53,17.54h8.76c0.08,0,0.15,0.07,0.15,0.15v2.48
	c0,0.08-0.07,0.15-0.15,0.15h-8.76c-0.08,0-0.15-0.07-0.15-0.15v-2.48C29.38,17.6,29.45,17.54,29.53,17.54z"/>
<path class="st0" d="M48.13,28.04V10.11c0-0.08,0.07-0.15,0.15-0.15h3.08c0.08,0,0.15,0.07,0.15,0.15v15.06
	c0,0.08,0.07,0.15,0.15,0.15h9.23c0.08,0,0.15,0.07,0.15,0.15v2.56c0,0.08-0.07,0.15-0.15,0.15H48.28
	C48.2,28.19,48.13,28.12,48.13,28.04z"/>
<path class="st0" d="M68.16,28.04V10.11c0-0.08,0.07-0.15,0.15-0.15h3.08c0.08,0,0.15,0.07,0.15,0.15v17.93
	c0,0.08-0.07,0.15-0.15,0.15h-3.08C68.23,28.19,68.16,28.12,68.16,28.04z"/>
<path class="st0" d="M89.34,28.45c-1.41,0-2.7-0.23-3.88-0.69c-1.18-0.46-2.21-1.12-3.09-1.97c-0.88-0.85-1.56-1.84-2.04-2.97
	c-0.49-1.13-0.73-2.38-0.73-3.75c0-1.37,0.24-2.62,0.73-3.75c0.49-1.13,1.17-2.12,2.06-2.97c0.89-0.85,1.92-1.51,3.1-1.97
	c1.18-0.46,2.47-0.69,3.88-0.69c1.49,0,2.86,0.26,4.09,0.77c1.19,0.49,2.2,1.22,3.03,2.17c0.05,0.06,0.05,0.15-0.01,0.21L94.5,14.7
	c-0.06,0.06-0.15,0.05-0.21-0.01c-0.65-0.66-1.36-1.16-2.14-1.5c-0.82-0.36-1.69-0.53-2.63-0.53c-0.96,0-1.83,0.16-2.62,0.47
	c-0.79,0.31-1.48,0.76-2.06,1.33c-0.58,0.57-1.04,1.25-1.37,2.03c-0.33,0.78-0.49,1.64-0.49,2.58c0,0.94,0.16,1.8,0.49,2.58
	c0.33,0.78,0.79,1.46,1.37,2.03c0.58,0.57,1.27,1.02,2.06,1.33c0.79,0.31,1.66,0.47,2.62,0.47c0.94,0,1.81-0.18,2.63-0.53
	c0.77-0.34,1.49-0.84,2.14-1.52c0.06-0.06,0.15-0.06,0.21-0.01l1.97,1.86c0.06,0.06,0.06,0.15,0.01,0.21
	c-0.83,0.95-1.84,1.68-3.03,2.18C92.22,28.19,90.85,28.45,89.34,28.45z"/>
<path class="st0" d="M124.41,27.97l8.07-17.93c0.02-0.05,0.08-0.09,0.14-0.09h3.14c0.06,0,0.11,0.03,0.14,0.09l8.09,17.93
	c0.05,0.1-0.03,0.21-0.14,0.21h-3.23c-0.06,0-0.12-0.04-0.14-0.09l-6.9-16.13c-0.04-0.1,0.03-0.21,0.14-0.21h0.9
	c0.11,0,0.18,0.11,0.14,0.21l-6.93,16.13c-0.02,0.06-0.08,0.09-0.14,0.09h-3.13C124.44,28.19,124.36,28.07,124.41,27.97z
	 M128.16,23.77l0.83-2.35c0.02-0.06,0.08-0.1,0.14-0.1h9.6c0.06,0,0.12,0.04,0.14,0.1l0.81,2.35c0.03,0.1-0.04,0.2-0.14,0.2H128.3
	C128.2,23.97,128.13,23.87,128.16,23.77z"/>
<path class="st0" d="M150.83,28.04V10.11c0-0.08,0.07-0.15,0.15-0.15h2.56c0.05,0,0.09,0.02,0.12,0.06l11.19,13.76
	c0.08,0.1,0.01,0.25-0.12,0.25h-0.91c-0.08,0-0.15-0.07-0.15-0.15V10.11c0-0.08,0.07-0.15,0.15-0.15h3.03
	c0.08,0,0.15,0.07,0.15,0.15v17.93c0,0.08-0.07,0.15-0.15,0.15h-2.56c-0.05,0-0.09-0.02-0.12-0.06l-11.16-13.76
	c-0.08-0.1-0.01-0.25,0.12-0.25h0.91c0.08,0,0.15,0.07,0.15,0.15v13.76c0,0.08-0.07,0.15-0.15,0.15h-3.06
	C150.89,28.19,150.83,28.12,150.83,28.04z"/>
</svg>
